<?xml version="1.0" encoding="UTF-8" standalone="no"?>
<svg
   id="Layer_2"
   data-name="Layer 2"
   viewBox="0 0 734.16364 606.99215"
   version="1.1"
   sodipodi:docname="Flower_1.svg"
   width="734.16364"
   height="606.99213"
   inkscape:version="1.4.3 (0d15f75, 2025-12-25)"
   xmlns:inkscape="http://www.inkscape.org/namespaces/inkscape"
   xmlns:sodipodi="http://sodipodi.sourceforge.net/DTD/sodipodi-0.dtd"
   xmlns="http://www.w3.org/2000/svg"
   xmlns:svg="http://www.w3.org/2000/svg">
  <sodipodi:namedview
     id="namedview39"
     pagecolor="#505050"
     bordercolor="#ffffff"
     borderopacity="1"
     inkscape:showpageshadow="0"
     inkscape:pageopacity="0"
     inkscape:pagecheckerboard="1"
     inkscape:deskcolor="#d1d1d1"
     inkscape:zoom="0.9963119"
     inkscape:cx="373.8789"
     inkscape:cy="488.3009"
     inkscape:window-width="2560"
     inkscape:window-height="1369"
     inkscape:window-x="1912"
     inkscape:window-y="-8"
     inkscape:window-maximized="1"
     inkscape:current-layer="Layer_2" />
  <defs
     id="defs35">
    <style
       id="style1">
      .cls-1 {
        fill: url(#linear-gradient-2);
          }

      .cls-2 {
        fill: url(#linear-gradient-4);
         
      }

      .cls-3 {
        fill: url(#linear-gradient-3);
      }

      .cls-4 {
        fill: url(#linear-gradient-5);

      }

      .cls-5 {
        opacity: 0.44;
        }

      .cls-6 {
        fill: url(#linear-gradient);
        
      }
      }
    </style>
    <linearGradient
       id="linear-gradient"
       x1="75.480003"
       y1="500.54001"
       x2="75.480003"
       y2="715.01001"
       gradientTransform="rotate(140.64,390.32076,512.45201)"
       gradientUnits="userSpaceOnUse">
      <stop
         offset="0"
         stop-color="#7ac473"
         id="stop1" />
      <stop
         offset=".11"
         stop-color="#7dab7e"
         id="stop2" />
      <stop
         offset=".31"
         stop-color="#82888f"
         id="stop3" />
      <stop
         offset=".49"
         stop-color="#866e9b"
         id="stop4" />
      <stop
         offset=".66"
         stop-color="#895fa2"
         id="stop5" />
      <stop
         offset=".79"
         stop-color="#8a5aa5"
         id="stop6" />
    </linearGradient>
    <linearGradient
       id="linear-gradient-2"
       x1="281.54001"
       y1="551.57001"
       x2="281.54001"
       y2="872.06"
       gradientTransform="rotate(140.64,390.32076,512.45201)"
       gradientUnits="userSpaceOnUse">
      <stop
         offset="0"
         stop-color="#70c174"
         id="stop7" />
      <stop
         offset=".01"
         stop-color="#70be75"
         id="stop8" />
      <stop
         offset=".17"
         stop-color="#799a86"
         id="stop9" />
      <stop
         offset=".32"
         stop-color="#807e93"
         id="stop10" />
      <stop
         offset=".48"
         stop-color="#856a9d"
         id="stop11" />
      <stop
         offset=".63"
         stop-color="#885ea3"
         id="stop12" />
      <stop
         offset=".79"
         stop-color="#8a5aa5"
         id="stop13" />
    </linearGradient>
    <linearGradient
       id="linear-gradient-3"
       x1="455.53"
       y1="528.95001"
       x2="626.83002"
       y2="778.96997"
       gradientTransform="rotate(140.64,390.32076,512.45201)"
       gradientUnits="userSpaceOnUse">
      <stop
         offset="0"
         stop-color="#79c364"
         id="stop14" />
      <stop
         offset=".18"
         stop-color="#7ea477"
         id="stop15" />
      <stop
         offset=".45"
         stop-color="#847b8f"
         id="stop16" />
      <stop
         offset=".66"
         stop-color="#88639f"
         id="stop17" />
      <stop
         offset=".79"
         stop-color="#8a5aa5"
         id="stop18" />
    </linearGradient>
    <linearGradient
       id="linear-gradient-4"
       x1="368.32001"
       y1="500.48001"
       x2="669.45001"
       y2="500.48001"
       gradientTransform="rotate(140.64,390.32076,512.45201)"
       gradientUnits="userSpaceOnUse">
      <stop
         offset="0"
         stop-color="#7ac143"
         id="stop19" />
      <stop
         offset=".02"
         stop-color="#86c53c"
         id="stop20" />
      <stop
         offset=".08"
         stop-color="#a6d12c"
         id="stop21" />
      <stop
         offset=".16"
         stop-color="#c2db1e"
         id="stop22" />
      <stop
         offset=".24"
         stop-color="#d8e313"
         id="stop23" />
      <stop
         offset=".33"
         stop-color="#eaea0a"
         id="stop24" />
      <stop
         offset=".44"
         stop-color="#f6ee04"
         id="stop25" />
      <stop
         offset=".6"
         stop-color="#fdf100"
         id="stop26" />
      <stop
         offset="1"
         stop-color="#fff200"
         id="stop27" />
    </linearGradient>
    <linearGradient
       id="linear-gradient-5"
       x1="18.889999"
       y1="399.17999"
       x2="149.58"
       y2="589.91998"
       gradientTransform="rotate(140.64,390.32076,512.45201)"
       gradientUnits="userSpaceOnUse">
      <stop
         offset=".21"
         stop-color="#e8e73b"
         id="stop28" />
      <stop
         offset=".33"
         stop-color="#e0e43d"
         id="stop29" />
      <stop
         offset=".51"
         stop-color="#ccde45"
         id="stop30" />
      <stop
         offset=".73"
         stop-color="#abd351"
         id="stop31" />
      <stop
         offset=".98"
         stop-color="#7dc462"
         id="stop32" />
      <stop
         offset="1"
         stop-color="#79c364"
         id="stop33" />
      <stop
         offset="1"
         stop-color="#7fc462"
         id="stop34" />
      <stop
         offset="1"
         stop-color="#82c562"
         id="stop35" />
    </linearGradient>
  </defs>
  <g
     class="cls-5"
     id="g39"
     transform="translate(-39.73829,-97.081739)">
    <path
       class="cls-6"
       d="m 540.31,361.65 c -15.32,-10.61 -9.93,-32.84 -14.55,-110.64 -2.51,-42.37 -4.36,-39.99 -3.03,-52.17 5.82,-53.45 42.16,-105.73 65.82,-101.52 5.06,0.9 7.4,3.86 27.37,33.37 23.35,34.5 34.87,51.86 37.1,57.36 16.56,40.69 6.89,79.79 5.43,85.38 -1.91,7.3 -18.32,66.39 -70.56,85.64 -12.77,4.71 -33.48,12.34 -47.58,2.58 z"
       id="path35"
       style="fill:url(#linear-gradient)" />
    <path
       class="cls-1"
       d="m 442.05,407.45 c 27.06,-5.77 54.1,-28.92 66.35,-54.41 16.25,-33.83 4.41,-67.56 -6.6,-98.94 -7.73,-22.02 -16.21,-46.19 -39.36,-62.13 -11.43,-7.87 -17,-7.24 -63.01,-16.24 -57.09,-11.17 -67.87,-15.94 -98.42,-17.01 -30.43,-1.07 -45.86,-1.41 -56.31,8.09 -17.14,15.57 -2.78,35.24 -15.68,75.8 -12.76,40.14 -34.75,45.8 -34.37,74.91 0.22,16.77 7.7,28.17 22.08,49.46 20.23,29.94 56.74,83.98 116.53,91.6 17.12,2.18 37.96,4.84 53.52,-7.45 14.39,-11.37 16.57,-29.46 37.53,-39.06 7.15,-3.27 11.52,-3.29 17.75,-4.62 z"
       id="path36"
       style="fill:url(#linear-gradient-2)" />
    <path
       class="cls-3"
       d="m 334,487.78 c 10.3,16.64 -0.56,42.5 -10.12,56.33 -18.32,26.52 -49.17,32.65 -80.59,39.08 -22.44,4.59 -52.57,10.75 -88.51,-0.89 -15.62,-5.06 -42.33,-13.71 -59.34,-38.02 -13.57,-19.4 -8.15,-30.32 -24.66,-54.31 -16.9,-24.55 -30.86,-24.54 -31.04,-35.83 -0.36,-22.8 56.19,-48.25 106.82,-49.51 13.17,-0.33 46.64,-1.16 79.23,17.84 27.02,15.75 27.09,29.78 57.54,43.91 27.86,12.93 42.34,7.94 50.67,21.39 z"
       id="path37"
       style="fill:url(#linear-gradient-3)" />
    <path
       class="cls-2"
       d="m 397,487.85 c 11.22,24.31 -10.79,66.22 -23.7,90.27 -7.26,13.53 -14.41,26.85 -27.07,43.74 -16.53,22.05 -35.28,47.07 -68.17,64.32 -16.72,8.77 -49.14,25.78 -81.51,13.71 -2.65,-0.99 -37.86,-14.62 -37.08,-39.16 0.47,-14.89 14.05,-29.33 28.37,-32.06 16.08,-3.06 20.96,10.97 42.62,13.59 19.99,2.42 36.38,-7.03 58.37,-19.71 13.66,-7.88 28.07,-16.19 41.41,-32.31 4.42,-5.34 31.34,-37.87 34.08,-75.59 0.23,-3.11 1.17,-18.42 11.04,-30.98 5.33,-6.78 8.93,-7.25 10.72,-7.13 5.9,0.41 9.66,8.56 10.93,11.31 z"
       id="path38"
       style="fill:url(#linear-gradient-4)" />
    <path
       class="cls-4"
       d="m 494.96,415.4 c 2.65,8 22.18,8.06 34.7,7.99 28.35,-0.16 55.89,-5.91 86.78,-17.39 34.42,-12.79 58.56,-27.32 67.2,-32.7 17.13,-10.67 40.5,-27.23 63.62,-52.18 25.52,-27.53 26.59,-39.24 26.64,-44.26 0.17,-17.2 -10.93,-38.39 -28.08,-41.85 -10.8,-2.18 -20.19,3.45 -23.34,5.4 -15.32,9.48 -17.17,24.32 -26.26,44.73 -15.38,34.51 -38.47,55.66 -46.25,62.77 -18.43,16.88 -36.02,25.68 -46.1,30.64 -30.45,14.96 -47.11,23.16 -68.11,19.96 -10.08,-1.54 -19.98,-5.52 -29.82,0 -6.69,3.75 -12.75,11.56 -10.98,16.89 z"
       id="path39"
       style="fill:url(#linear-gradient-5)" />
  </g>
</svg>
